<svg width="134" height="52" viewBox="0 0 134 52" fill="none" xmlns="http://www.w3.org/2000/svg">
<g clip-path="url(#clip0_42_34)">
<path fill-rule="evenodd" clip-rule="evenodd" d="M12.7268 20.9117V10.0518L36.8709 17.3906V25.8043L22.7795 25.9528L0.654724 24.5811L12.7268 20.9117Z" fill="#F6C389" stroke="#F6C389" stroke-miterlimit="1.5" stroke-linecap="round" stroke-linejoin="round"/>
<path fill-rule="evenodd" clip-rule="evenodd" d="M12.7267 41.8536V39.4073L0.0511475 37.5726L22.988 35.1263H36.8708V36.961L12.7267 41.8536Z" fill="#F6C389" stroke="#F6C389" stroke-miterlimit="1.5" stroke-linecap="round" stroke-linejoin="round"/>
</g>
<path d="M54.304 38V14.16H64.352C65.9307 14.16 67.2747 14.4373 68.384 14.992C69.5147 15.5253 70.3787 16.2933 70.976 17.296C71.5947 18.2773 71.904 19.472 71.904 20.88C71.904 21.968 71.6053 22.992 71.008 23.952C70.432 24.8907 69.504 25.6693 68.224 26.288V24.272C69.3973 24.72 70.3253 25.2747 71.008 25.936C71.6907 26.5973 72.1707 27.3333 72.448 28.144C72.7253 28.9547 72.864 29.808 72.864 30.704C72.864 32.9867 72.1067 34.7787 70.592 36.08C69.0987 37.36 67.0187 38 64.352 38H54.304ZM58.656 34.16H64.8C65.9307 34.16 66.8267 33.8507 67.488 33.232C68.1707 32.592 68.512 31.7493 68.512 30.704C68.512 29.6587 68.1707 28.816 67.488 28.176C66.8267 27.536 65.9307 27.216 64.8 27.216H58.656V34.16ZM58.656 23.408H64.576C65.472 23.408 66.1867 23.152 66.72 22.64C67.2533 22.1067 67.52 21.424 67.52 20.592C67.52 19.76 67.2533 19.0987 66.72 18.608C66.1867 18.1173 65.472 17.872 64.576 17.872H58.656V23.408ZM84.589 38.384C82.8823 38.384 81.325 37.9893 79.917 37.2C78.5303 36.4107 77.421 35.3333 76.589 33.968C75.7783 32.6027 75.373 31.0453 75.373 29.296C75.373 27.5467 75.7783 25.9893 76.589 24.624C77.421 23.2587 78.5303 22.1813 79.917 21.392C81.3037 20.6027 82.861 20.208 84.589 20.208C86.2957 20.208 87.8423 20.6027 89.229 21.392C90.6157 22.1813 91.7143 23.2587 92.525 24.624C93.357 25.968 93.773 27.5253 93.773 29.296C93.773 31.0453 93.357 32.6027 92.525 33.968C91.693 35.3333 90.5837 36.4107 89.197 37.2C87.8103 37.9893 86.2743 38.384 84.589 38.384ZM84.589 34.544C85.5277 34.544 86.349 34.32 87.053 33.872C87.7783 33.424 88.3437 32.8053 88.749 32.016C89.1757 31.2053 89.389 30.2987 89.389 29.296C89.389 28.272 89.1757 27.376 88.749 26.608C88.3437 25.8187 87.7783 25.2 87.053 24.752C86.349 24.2827 85.5277 24.048 84.589 24.048C83.629 24.048 82.7863 24.2827 82.061 24.752C81.3357 25.2 80.7597 25.8187 80.333 26.608C79.9277 27.376 79.725 28.272 79.725 29.296C79.725 30.2987 79.9277 31.2053 80.333 32.016C80.7597 32.8053 81.3357 33.424 82.061 33.872C82.7863 34.32 83.629 34.544 84.589 34.544ZM96.952 38V20.592H101.144V38H96.952ZM96.952 18.64V14.16H101.144V18.64H96.952ZM105.015 38V13.776H109.207V38H105.015ZM113.077 38V20.592H117.013V24.464L116.693 23.888C117.098 22.5867 117.728 21.68 118.581 21.168C119.456 20.656 120.501 20.4 121.717 20.4H122.741V24.112H121.237C120.042 24.112 119.082 24.4853 118.357 25.232C117.632 25.9573 117.269 26.9813 117.269 28.304V38H113.077ZM125.749 38V33.52H129.973V38H125.749Z" fill="white"/>
<defs>
<clipPath id="clip0_42_34">
<rect width="37" height="32" fill="white" transform="translate(0 10)"/>
</clipPath>
</defs>
</svg>
